<svg width="1920" height="1080" viewBox="0 0 1920 1080" fill="none" xmlns="http://www.w3.org/2000/svg">
<g clip-path="url(#clip0_28_49)">
<rect width="1920" height="1080" fill="#A8EAFF"/>
<path d="M-210.618 463.176C-225.646 475.158 -238.427 489.68 -252.949 502.24V1099.91H2152.36V322.69C2129.36 307.36 2103.22 299.065 2076.22 293.428C2047.97 287.529 2019.16 287.615 1990.42 285.758C1943.46 282.722 1896.76 279.443 1850.08 273.257C1801.51 266.82 1758.84 266.905 1711.44 278.939C1636.22 298.037 1568.99 328.137 1499.93 362.18C1476.4 373.781 1456.88 385.772 1431.46 393.288C1407.49 400.378 1383.1 405.884 1359.16 413.033C1315.74 426.001 1270.28 440.798 1230.46 462.75C1203.81 477.443 1176.16 487.299 1146.37 492.864C1062.36 508.559 984.861 493.422 902.19 478.659C856.87 470.566 815.481 458.716 771.932 443.858C739.843 432.909 708.24 420.996 676.475 409.198C654.52 401.043 634.337 389.034 612.553 380.646C551.084 356.977 480.931 317.576 412.833 317.576C263.968 317.576 113.239 328.441 -29.2221 374.396C-60.4365 384.465 -89.4568 399.561 -118.997 413.601C-149.789 428.237 -183.73 441.739 -210.618 463.176Z" fill="#C8F2FF"/>
<circle cx="1954" cy="963" r="423" fill="#FFCB15"/>
<circle cx="154" cy="963" r="423" fill="#FFCB15"/>
</g>
<defs>
<clipPath id="clip0_28_49">
<rect width="1920" height="1080" fill="white"/>
</clipPath>
</defs>
</svg>
